<mxfile host="app.diagrams.net" modified="2023-11-06T11:36:40.370Z" agent="Mozilla/5.0 (X11; Linux x86_64) AppleWebKit/537.36 (KHTML, like Gecko) Chrome/108.0.0.0 Safari/537.36" etag="8UAS3lScVft79C9vrSNP" version="22.0.8" type="github">
  <diagram name="Page-1" id="13e1069c-82ec-6db2-03f1-153e76fe0fe0">
    <mxGraphModel dx="1594" dy="827" grid="1" gridSize="10" guides="1" tooltips="1" connect="1" arrows="1" fold="1" page="1" pageScale="1" pageWidth="1100" pageHeight="850" background="none" math="0" shadow="0">
      <root>
        <mxCell id="0" />
        <mxCell id="1" parent="0" />
        <mxCell id="7baba1c4bc27f4b0-2" value="Charge" style="shape=umlLifeline;perimeter=lifelinePerimeter;whiteSpace=wrap;html=1;container=1;collapsible=0;recursiveResize=0;outlineConnect=0;rounded=1;shadow=0;comic=0;labelBackgroundColor=none;strokeWidth=1;fontFamily=Verdana;fontSize=12;align=center;" parent="1" vertex="1">
          <mxGeometry x="240" y="80" width="100" height="830" as="geometry" />
        </mxCell>
        <mxCell id="axAvxxxvhooYrCe9LgOZ-1" value="" style="html=1;points=[[0,0,0,0,5],[0,1,0,0,-5],[1,0,0,0,5],[1,1,0,0,-5]];perimeter=orthogonalPerimeter;outlineConnect=0;targetShapes=umlLifeline;portConstraint=eastwest;newEdgeStyle={&quot;curved&quot;:0,&quot;rounded&quot;:0};" vertex="1" parent="7baba1c4bc27f4b0-2">
          <mxGeometry x="50" y="90" width="10" height="80" as="geometry" />
        </mxCell>
        <mxCell id="7baba1c4bc27f4b0-3" value="Planning" style="shape=umlLifeline;perimeter=lifelinePerimeter;whiteSpace=wrap;html=1;container=1;collapsible=0;recursiveResize=0;outlineConnect=0;rounded=1;shadow=0;comic=0;labelBackgroundColor=none;strokeWidth=1;fontFamily=Verdana;fontSize=12;align=center;" parent="1" vertex="1">
          <mxGeometry x="400" y="80" width="100" height="850" as="geometry" />
        </mxCell>
        <mxCell id="axAvxxxvhooYrCe9LgOZ-4" value="" style="html=1;points=[[0,0,0,0,5],[0,1,0,0,-5],[1,0,0,0,5],[1,1,0,0,-5]];perimeter=orthogonalPerimeter;outlineConnect=0;targetShapes=umlLifeline;portConstraint=eastwest;newEdgeStyle={&quot;curved&quot;:0,&quot;rounded&quot;:0};" vertex="1" parent="7baba1c4bc27f4b0-3">
          <mxGeometry x="50" y="280" width="10" height="40" as="geometry" />
        </mxCell>
        <mxCell id="axAvxxxvhooYrCe9LgOZ-5" value="4.计算切割路径" style="html=1;align=left;spacingLeft=2;endArrow=block;rounded=0;edgeStyle=orthogonalEdgeStyle;curved=0;rounded=0;exitX=0.5;exitY=0.448;exitDx=0;exitDy=0;exitPerimeter=0;" edge="1" target="axAvxxxvhooYrCe9LgOZ-4" parent="7baba1c4bc27f4b0-3" source="7baba1c4bc27f4b0-3">
          <mxGeometry relative="1" as="geometry">
            <mxPoint x="55" y="260" as="sourcePoint" />
            <Array as="points">
              <mxPoint x="85" y="260" />
              <mxPoint x="85" y="290" />
            </Array>
          </mxGeometry>
        </mxCell>
        <mxCell id="axAvxxxvhooYrCe9LgOZ-6" value="" style="html=1;points=[[0,0,0,0,5],[0,1,0,0,-5],[1,0,0,0,5],[1,1,0,0,-5]];perimeter=orthogonalPerimeter;outlineConnect=0;targetShapes=umlLifeline;portConstraint=eastwest;newEdgeStyle={&quot;curved&quot;:0,&quot;rounded&quot;:0};" vertex="1" parent="7baba1c4bc27f4b0-3">
          <mxGeometry x="50" y="190" width="10" height="40" as="geometry" />
        </mxCell>
        <mxCell id="axAvxxxvhooYrCe9LgOZ-13" value="" style="html=1;points=[[0,0,0,0,5],[0,1,0,0,-5],[1,0,0,0,5],[1,1,0,0,-5]];perimeter=orthogonalPerimeter;outlineConnect=0;targetShapes=umlLifeline;portConstraint=eastwest;newEdgeStyle={&quot;curved&quot;:0,&quot;rounded&quot;:0};" vertex="1" parent="7baba1c4bc27f4b0-3">
          <mxGeometry x="46" y="612" width="10" height="40" as="geometry" />
        </mxCell>
        <mxCell id="axAvxxxvhooYrCe9LgOZ-20" value="" style="html=1;points=[[0,0,0,0,5],[0,1,0,0,-5],[1,0,0,0,5],[1,1,0,0,-5]];perimeter=orthogonalPerimeter;outlineConnect=0;targetShapes=umlLifeline;portConstraint=eastwest;newEdgeStyle={&quot;curved&quot;:0,&quot;rounded&quot;:0};" vertex="1" parent="7baba1c4bc27f4b0-3">
          <mxGeometry x="45" y="709" width="10" height="40" as="geometry" />
        </mxCell>
        <mxCell id="axAvxxxvhooYrCe9LgOZ-21" value="9.充电站切割是否完成，未完成返回4" style="html=1;align=left;spacingLeft=2;endArrow=block;rounded=0;edgeStyle=orthogonalEdgeStyle;curved=0;rounded=0;" edge="1" target="axAvxxxvhooYrCe9LgOZ-20" parent="7baba1c4bc27f4b0-3">
          <mxGeometry relative="1" as="geometry">
            <mxPoint x="50" y="689" as="sourcePoint" />
            <Array as="points">
              <mxPoint x="80" y="719" />
            </Array>
          </mxGeometry>
        </mxCell>
        <mxCell id="7baba1c4bc27f4b0-4" value="Control" style="shape=umlLifeline;perimeter=lifelinePerimeter;whiteSpace=wrap;html=1;container=1;collapsible=0;recursiveResize=0;outlineConnect=0;rounded=1;shadow=0;comic=0;labelBackgroundColor=none;strokeWidth=1;fontFamily=Verdana;fontSize=12;align=center;" parent="1" vertex="1">
          <mxGeometry x="540" y="80" width="100" height="840" as="geometry" />
        </mxCell>
        <mxCell id="axAvxxxvhooYrCe9LgOZ-8" value="" style="html=1;points=[[0,0,0,0,5],[0,1,0,0,-5],[1,0,0,0,5],[1,1,0,0,-5]];perimeter=orthogonalPerimeter;outlineConnect=0;targetShapes=umlLifeline;portConstraint=eastwest;newEdgeStyle={&quot;curved&quot;:0,&quot;rounded&quot;:0};" vertex="1" parent="7baba1c4bc27f4b0-4">
          <mxGeometry x="45" y="345" width="10" height="55" as="geometry" />
        </mxCell>
        <mxCell id="7baba1c4bc27f4b0-8" value="UI" style="shape=umlLifeline;perimeter=lifelinePerimeter;whiteSpace=wrap;html=1;container=1;collapsible=0;recursiveResize=0;outlineConnect=0;rounded=1;shadow=0;comic=0;labelBackgroundColor=none;strokeWidth=1;fontFamily=Verdana;fontSize=12;align=center;" parent="1" vertex="1">
          <mxGeometry x="100" y="80" width="100" height="840" as="geometry" />
        </mxCell>
        <mxCell id="axAvxxxvhooYrCe9LgOZ-22" value="" style="html=1;points=[[0,0,0,0,5],[0,1,0,0,-5],[1,0,0,0,5],[1,1,0,0,-5]];perimeter=orthogonalPerimeter;outlineConnect=0;targetShapes=umlLifeline;portConstraint=eastwest;newEdgeStyle={&quot;curved&quot;:0,&quot;rounded&quot;:0};" vertex="1" parent="7baba1c4bc27f4b0-8">
          <mxGeometry x="45" y="782" width="10" height="50" as="geometry" />
        </mxCell>
        <mxCell id="axAvxxxvhooYrCe9LgOZ-2" value="1.是否充电站切割判断" style="html=1;verticalAlign=bottom;endArrow=block;curved=0;rounded=0;entryX=0;entryY=0;entryDx=0;entryDy=5;" edge="1" target="axAvxxxvhooYrCe9LgOZ-1" parent="1" source="7baba1c4bc27f4b0-8">
          <mxGeometry relative="1" as="geometry">
            <mxPoint x="220" y="175" as="sourcePoint" />
          </mxGeometry>
        </mxCell>
        <mxCell id="axAvxxxvhooYrCe9LgOZ-3" value="2.返回结果" style="html=1;verticalAlign=bottom;endArrow=open;dashed=1;endSize=8;curved=0;rounded=0;exitX=0;exitY=1;exitDx=0;exitDy=-5;" edge="1" source="axAvxxxvhooYrCe9LgOZ-1" parent="1" target="7baba1c4bc27f4b0-8">
          <mxGeometry relative="1" as="geometry">
            <mxPoint x="220" y="245" as="targetPoint" />
          </mxGeometry>
        </mxCell>
        <mxCell id="axAvxxxvhooYrCe9LgOZ-7" value="3.进入充电站切割" style="html=1;verticalAlign=bottom;startArrow=oval;endArrow=block;startSize=8;curved=0;rounded=0;entryX=0;entryY=0;entryDx=0;entryDy=5;" edge="1" target="axAvxxxvhooYrCe9LgOZ-6" parent="1" source="7baba1c4bc27f4b0-8">
          <mxGeometry relative="1" as="geometry">
            <mxPoint x="380" y="275" as="sourcePoint" />
          </mxGeometry>
        </mxCell>
        <mxCell id="axAvxxxvhooYrCe9LgOZ-9" value="5.发送路径" style="html=1;verticalAlign=bottom;startArrow=oval;endArrow=block;startSize=8;curved=0;rounded=0;entryX=0;entryY=0;entryDx=0;entryDy=5;" edge="1" target="axAvxxxvhooYrCe9LgOZ-8" parent="1" source="7baba1c4bc27f4b0-3">
          <mxGeometry relative="1" as="geometry">
            <mxPoint x="515" y="430" as="sourcePoint" />
          </mxGeometry>
        </mxCell>
        <mxCell id="axAvxxxvhooYrCe9LgOZ-11" value="" style="html=1;points=[[0,0,0,0,5],[0,1,0,0,-5],[1,0,0,0,5],[1,1,0,0,-5]];perimeter=orthogonalPerimeter;outlineConnect=0;targetShapes=umlLifeline;portConstraint=eastwest;newEdgeStyle={&quot;curved&quot;:0,&quot;rounded&quot;:0};" vertex="1" parent="1">
          <mxGeometry x="588" y="536" width="10" height="40" as="geometry" />
        </mxCell>
        <mxCell id="axAvxxxvhooYrCe9LgOZ-12" value="6.路径跟踪" style="html=1;align=left;spacingLeft=2;endArrow=block;rounded=0;edgeStyle=orthogonalEdgeStyle;curved=0;rounded=0;" edge="1" parent="1" target="axAvxxxvhooYrCe9LgOZ-11">
          <mxGeometry relative="1" as="geometry">
            <mxPoint x="593" y="516" as="sourcePoint" />
            <Array as="points">
              <mxPoint x="623" y="546" />
            </Array>
          </mxGeometry>
        </mxCell>
        <mxCell id="axAvxxxvhooYrCe9LgOZ-14" value="8.当前路径跟踪完成" style="html=1;verticalAlign=bottom;endArrow=block;curved=0;rounded=0;entryX=1;entryY=0;entryDx=0;entryDy=5;" edge="1" target="axAvxxxvhooYrCe9LgOZ-13" parent="1">
          <mxGeometry relative="1" as="geometry">
            <mxPoint x="589.5" y="696.9999999999998" as="sourcePoint" />
          </mxGeometry>
        </mxCell>
        <mxCell id="axAvxxxvhooYrCe9LgOZ-23" value="10.充电站切割完成" style="html=1;verticalAlign=bottom;endArrow=block;curved=0;rounded=0;entryX=1;entryY=0;entryDx=0;entryDy=5;" edge="1" target="axAvxxxvhooYrCe9LgOZ-22" parent="1">
          <mxGeometry relative="1" as="geometry">
            <mxPoint x="449.5" y="867" as="sourcePoint" />
          </mxGeometry>
        </mxCell>
        <mxCell id="axAvxxxvhooYrCe9LgOZ-27" value="" style="html=1;points=[[0,0,0,0,5],[0,1,0,0,-5],[1,0,0,0,5],[1,1,0,0,-5]];perimeter=orthogonalPerimeter;outlineConnect=0;targetShapes=umlLifeline;portConstraint=eastwest;newEdgeStyle={&quot;curved&quot;:0,&quot;rounded&quot;:0};" vertex="1" parent="1">
          <mxGeometry x="588" y="613" width="10" height="40" as="geometry" />
        </mxCell>
        <mxCell id="axAvxxxvhooYrCe9LgOZ-28" value="7.如有碰撞，返回4&lt;br&gt;其他异常则结束，返回×" style="html=1;align=left;spacingLeft=2;endArrow=block;rounded=0;edgeStyle=orthogonalEdgeStyle;curved=0;rounded=0;" edge="1" parent="1" target="axAvxxxvhooYrCe9LgOZ-27">
          <mxGeometry relative="1" as="geometry">
            <mxPoint x="593" y="593" as="sourcePoint" />
            <Array as="points">
              <mxPoint x="623" y="623" />
            </Array>
          </mxGeometry>
        </mxCell>
      </root>
    </mxGraphModel>
  </diagram>
</mxfile>
